<?xml version="1.0" standalone="no"?>
<!DOCTYPE svg PUBLIC "-//W3C//DTD SVG 20010904//EN"
 "http://www.w3.org/TR/2001/REC-SVG-20010904/DTD/svg10.dtd">
<svg version="1.0" xmlns="http://www.w3.org/2000/svg"
 width="529.000000pt" height="529.000000pt" viewBox="0 0 529.000000 529.000000"
 preserveAspectRatio="xMidYMid meet">
<metadata>
Created by potrace 1.14, written by Peter Selinger 2001-2017
</metadata>
<g transform="translate(0.000000,529.000000) scale(0.100000,-0.100000)"
fill="#000000" stroke="none">
<path d="M1564 4651 c-2 -3 -18 -5 -35 -6 -17 -1 -34 -7 -38 -14 -5 -7 -12
-12 -16 -10 -10 3 -95 -52 -95 -63 0 -5 -4 -7 -8 -4 -5 3 -15 -4 -22 -15 -8
-10 -20 -19 -26 -19 -7 0 -14 -6 -17 -14 -8 -19 -71 -50 -75 -36 -2 5 -8 7
-13 4 -6 -3 -29 -8 -52 -11 -72 -8 -97 -29 -127 -109 -12 -34 -71 -72 -108
-69 -12 1 -22 -2 -22 -7 0 -5 -11 -6 -25 -4 -14 3 -25 0 -25 -6 0 -5 -6 -8
-14 -5 -8 3 -17 3 -20 -1 -4 -3 -16 -7 -29 -9 -33 -5 -137 -80 -137 -99 0 -4
-8 -14 -18 -23 -31 -29 -102 -130 -102 -146 0 -8 -5 -15 -12 -15 -6 0 -8 -3
-5 -6 3 -4 2 -16 -4 -27 -9 -16 -11 -66 -8 -184 0 -10 3 -25 6 -33 8 -20 13
-40 16 -67 5 -33 34 -73 96 -133 31 -30 65 -71 74 -90 26 -51 56 -100 71 -115
7 -7 24 -26 38 -43 27 -32 82 -65 92 -55 3 4 6 2 6 -3 0 -5 18 -10 40 -9 22 0
40 3 40 6 0 3 6 6 13 7 14 1 36 7 57 15 21 8 151 48 175 54 11 3 44 7 74 9 49
3 58 0 113 -39 33 -23 66 -45 72 -49 23 -16 125 -58 139 -58 22 0 97 -58 97
-75 0 -8 5 -15 10 -15 6 0 10 -9 10 -21 0 -11 3 -18 8 -16 4 3 8 -7 8 -21 1
-15 3 -57 5 -94 1 -40 7 -68 13 -68 6 0 3 -5 -7 -11 -31 -18 -74 -3 -113 40
-21 22 -40 38 -44 36 -3 -2 -12 5 -19 17 -10 16 -10 18 0 12 7 -4 4 4 -6 17
-16 22 -55 35 -55 19 0 -3 -10 -6 -21 -7 -28 -2 -58 -35 -55 -59 2 -14 11 -19
34 -19 41 0 51 -12 19 -24 -28 -11 -60 -41 -64 -59 -6 -25 53 -39 69 -17 5 6
8 4 8 -5 0 -11 2 -12 8 -2 7 10 14 8 31 -7 25 -22 65 -33 96 -27 11 3 20 5 20
6 0 1 10 3 23 4 12 2 22 -1 22 -6 0 -4 8 -8 18 -8 24 0 67 -24 67 -37 0 -6 3
-15 8 -19 11 -12 8 -21 -8 -21 -8 0 -15 4 -15 8 0 5 -7 6 -15 3 -8 -4 -15 -1
-15 6 0 6 -4 8 -10 5 -5 -3 -16 -3 -22 2 -7 4 -19 8 -26 9 -7 1 -20 8 -29 15
-23 20 -60 18 -82 -3 -11 -10 -26 -18 -34 -18 -15 0 -37 -54 -37 -90 l0 -23
24 22 c16 15 26 19 31 12 4 -8 16 -5 35 9 16 11 31 17 34 12 3 -5 -4 -15 -15
-23 -45 -31 -57 -45 -63 -77 -8 -35 3 -42 28 -16 9 8 16 11 16 5 0 -17 28 -13
48 7 16 16 35 20 105 24 15 1 27 4 27 8 0 6 54 40 64 40 7 0 39 -69 39 -86 0
-8 2 -12 4 -11 2 2 30 -22 62 -53 58 -57 80 -90 60 -90 -6 0 -8 -4 -4 -9 3 -5
0 -15 -7 -23 -7 -7 -26 -39 -42 -70 -15 -32 -33 -58 -38 -58 -5 0 -8 -6 -7
-12 2 -18 -24 -78 -34 -78 -4 0 -5 -4 -2 -10 3 -5 2 -10 -2 -10 -5 0 -9 -10
-10 -21 -1 -12 -10 -31 -20 -42 -12 -14 -13 -18 -3 -12 12 7 13 6 3 -6 -6 -8
-10 -21 -9 -29 14 -63 21 -81 44 -106 15 -16 26 -30 24 -31 -3 -4 28 -53 45
-71 6 -6 15 -21 18 -32 4 -11 11 -18 16 -15 5 4 9 1 9 -5 0 -6 23 -40 50 -75
28 -35 50 -67 50 -70 0 -8 43 -69 55 -77 6 -4 6 -8 1 -8 -5 0 -2 -7 5 -16 14
-17 21 -84 8 -84 -4 0 -11 -9 -14 -20 -3 -11 -13 -20 -21 -20 -8 0 -14 -4 -14
-10 0 -16 -63 -27 -103 -18 -21 5 -42 6 -48 3 -5 -4 -9 -2 -9 4 0 5 -9 8 -20
6 -37 -7 -90 -29 -90 -37 0 -4 -5 -8 -11 -8 -16 0 -59 -36 -52 -44 3 -3 2 -6
-3 -6 -15 0 -43 -54 -48 -92 -3 -18 -5 -35 -6 -38 -7 -17 -3 -37 7 -47 15 -16
36 -17 31 -1 -2 6 4 20 14 30 14 14 23 16 37 9 10 -6 21 -7 25 -4 3 3 6 2 6
-4 0 -33 165 -39 257 -8 10 3 29 -39 25 -58 -1 -4 9 -13 23 -19 19 -8 22 -14
13 -20 -10 -6 -10 -8 0 -8 6 0 12 -5 12 -11 0 -5 -6 -7 -12 -4 -7 4 -4 -1 6
-9 19 -15 47 -23 33 -10 -3 4 -1 12 6 20 7 7 18 20 25 29 14 17 51 12 64 -9 4
-6 8 -7 8 -2 0 5 7 3 15 -4 8 -6 19 -9 25 -5 5 3 10 3 10 -2 0 -4 16 -8 35 -9
19 0 32 3 29 8 -3 4 6 4 20 -2 17 -6 26 -6 26 0 0 6 3 9 8 9 4 -1 10 0 15 1 4
1 12 4 17 5 6 1 11 4 13 5 5 6 76 7 75 1 -3 -28 5 -53 18 -58 17 -6 36 15 27
31 -3 5 -1 6 5 2 7 -4 12 -3 12 2 0 5 16 9 35 10 19 1 35 -2 35 -7 0 -11 53
-8 62 4 5 6 8 6 8 -2 0 -7 9 -10 23 -7 12 3 36 6 52 7 35 2 74 40 82 79 3 15
8 28 12 28 4 0 6 25 6 55 0 30 3 55 7 55 4 0 4 7 1 17 -5 12 -3 14 8 8 11 -7
12 -6 3 6 -13 18 -8 69 10 98 7 10 5 12 -4 6 -9 -6 -10 -2 -5 16 5 13 9 33 11
44 5 34 14 79 21 105 3 14 8 32 10 40 16 64 13 96 -12 122 -14 16 -32 28 -40
28 -19 0 -66 41 -59 52 3 4 1 8 -5 8 -6 0 -13 11 -17 25 -3 14 -10 25 -15 25
-5 0 -9 5 -9 11 0 14 -25 39 -39 39 -6 0 -11 5 -11 10 0 14 4 13 62 -21 62
-36 78 -51 211 -187 98 -102 299 -300 321 -317 15 -11 32 -25 39 -31 29 -25
135 -94 146 -94 6 0 11 -4 11 -10 0 -5 5 -10 10 -10 6 0 28 -11 49 -24 21 -14
42 -22 45 -19 3 4 6 1 6 -5 0 -7 4 -12 9 -12 5 0 35 -12 67 -27 33 -15 64 -28
69 -29 6 -1 29 -9 53 -18 23 -8 42 -12 42 -9 0 4 5 2 11 -4 6 -6 18 -9 25 -6
8 3 14 1 14 -3 0 -17 202 -9 265 10 118 36 240 102 294 160 13 14 28 23 34 19
6 -3 7 -1 3 5 -4 7 -2 12 3 12 6 0 10 3 9 8 -3 7 19 36 54 73 9 9 14 20 10 23
-3 4 3 13 14 22 10 8 14 13 7 10 -8 -5 -8 0 0 18 7 13 15 22 18 20 4 -2 7 2 6
9 -1 37 4 68 11 64 4 -3 8 13 9 34 2 22 7 48 13 59 8 14 8 20 0 20 -6 0 -8 5
-3 13 10 17 13 37 4 37 -4 0 -8 15 -9 33 -1 40 -5 58 -16 76 -7 10 -5 12 3 6
8 -5 7 1 -2 16 -9 13 -16 27 -16 32 -1 29 -78 124 -118 146 -11 5 -25 6 -33 1
-8 -5 -18 -6 -24 -3 -16 10 3 -59 22 -80 9 -10 16 -22 15 -26 -3 -8 8 -53 15
-66 10 -16 9 -97 0 -130 -5 -16 -11 -42 -13 -57 -6 -39 -76 -134 -89 -120 -3
3 -6 1 -6 -4 0 -15 -72 -52 -92 -49 -10 2 -18 -1 -18 -6 0 -6 -6 -7 -12 -3 -7
5 -29 9 -48 11 -58 5 -175 54 -202 86 -10 11 -18 16 -18 11 0 -5 -8 3 -18 19
-10 15 -22 24 -25 20 -4 -3 -7 -2 -7 3 0 6 -24 37 -54 69 -30 33 -52 63 -50
67 3 5 1 8 -5 8 -11 0 -83 140 -101 196 -6 22 -14 46 -17 54 -7 18 -7 15 -21
67 -15 50 -70 222 -79 243 -3 8 -7 20 -8 25 0 6 -7 24 -14 40 -7 17 -14 37
-16 45 -4 15 -51 152 -62 180 -8 20 -14 42 -15 58 -1 6 -5 12 -10 12 -4 0 -8
7 -8 16 0 25 -106 233 -159 314 -28 41 -66 93 -86 115 -19 22 -35 44 -35 49 0
5 -3 6 -6 3 -4 -4 -14 1 -23 11 -9 10 -33 28 -54 41 -21 13 -44 30 -52 38 -8
8 -15 12 -15 8 0 -3 -19 7 -42 22 -24 16 -60 37 -80 48 -21 11 -38 23 -38 27
0 5 -9 8 -20 8 -11 0 -20 4 -20 10 0 5 -11 12 -25 16 -14 3 -25 11 -25 17 0 6
-3 7 -7 4 -3 -4 -11 -3 -17 2 -6 4 -54 31 -106 59 -158 83 -164 87 -176 97 -6
6 -23 18 -37 28 -34 25 -107 98 -133 133 -37 51 -104 180 -97 187 3 4 1 7 -5
7 -7 0 -12 5 -12 11 0 6 -7 27 -16 47 -20 46 -38 90 -49 122 -1 3 -9 22 -19
42 -9 21 -16 41 -15 44 0 4 -3 10 -8 13 -10 7 -52 93 -52 105 1 5 -3 12 -8 15
-6 3 -34 44 -64 91 -58 91 -71 108 -136 173 -62 61 -94 87 -110 87 -7 0 -13 5
-13 11 0 5 -4 7 -10 4 -5 -3 -16 -3 -22 2 -13 8 -246 12 -254 4z m986 -3159
c0 -5 6 -9 13 -10 46 -4 111 -47 103 -68 -3 -8 -2 -14 2 -14 5 0 8 -13 8 -30
0 -16 -3 -30 -7 -30 -4 0 -11 -9 -14 -20 -4 -11 -18 -33 -32 -48 -15 -15 -23
-22 -19 -15 4 8 -2 8 -21 -2 -16 -7 -41 -12 -58 -11 -27 1 -29 4 -30 39 -1 20
1 37 5 37 4 0 6 20 6 45 -1 25 2 45 5 45 4 0 5 10 5 23 -1 12 0 27 3 32 3 6 6
13 7 18 3 15 4 17 14 17 6 0 10 -4 10 -8z m-363 -467 c0 -8 -4 -15 -9 -15 -10
0 -11 14 -1 23 9 10 10 9 10 -8z"/>
</g>
</svg>
